G04 EAGLE Gerber RS-274X export*
G75*
%MOMM*%
%FSLAX34Y34*%
%LPD*%
%INSilkscreen Bottom*%
%IPPOS*%
%AMOC8*
5,1,8,0,0,1.08239X$1,22.5*%
G01*
%ADD10C,0.101600*%
%ADD11C,0.152400*%
%ADD12C,0.076200*%


D10*
X79248Y44430D02*
X90942Y44430D01*
X90942Y50277D01*
X88993Y52226D01*
X85095Y52226D01*
X83146Y50277D01*
X83146Y44430D01*
X83146Y48328D02*
X79248Y52226D01*
X79248Y56124D02*
X79248Y63920D01*
X79248Y56124D02*
X87044Y63920D01*
X88993Y63920D01*
X90942Y61971D01*
X90942Y58073D01*
X88993Y56124D01*
X221742Y185928D02*
X221742Y197622D01*
X215895Y197622D01*
X213946Y195673D01*
X213946Y191775D01*
X215895Y189826D01*
X221742Y189826D01*
X217844Y189826D02*
X213946Y185928D01*
X210048Y195673D02*
X208099Y197622D01*
X204201Y197622D01*
X202252Y195673D01*
X202252Y193724D01*
X204201Y191775D01*
X206150Y191775D01*
X204201Y191775D02*
X202252Y189826D01*
X202252Y187877D01*
X204201Y185928D01*
X208099Y185928D01*
X210048Y187877D01*
X116342Y44430D02*
X104648Y44430D01*
X116342Y44430D02*
X116342Y50277D01*
X114393Y52226D01*
X110495Y52226D01*
X108546Y50277D01*
X108546Y44430D01*
X108546Y48328D02*
X104648Y52226D01*
X116342Y56124D02*
X116342Y63920D01*
X114393Y63920D01*
X106597Y56124D01*
X104648Y56124D01*
X65542Y44430D02*
X53848Y44430D01*
X65542Y44430D02*
X65542Y50277D01*
X63593Y52226D01*
X59695Y52226D01*
X57746Y50277D01*
X57746Y44430D01*
X57746Y48328D02*
X53848Y52226D01*
X63593Y56124D02*
X65542Y58073D01*
X65542Y61971D01*
X63593Y63920D01*
X61644Y63920D01*
X59695Y61971D01*
X57746Y63920D01*
X55797Y63920D01*
X53848Y61971D01*
X53848Y58073D01*
X55797Y56124D01*
X57746Y56124D01*
X59695Y58073D01*
X61644Y56124D01*
X63593Y56124D01*
X59695Y58073D02*
X59695Y61971D01*
X221742Y211328D02*
X221742Y223022D01*
X215895Y223022D01*
X213946Y221073D01*
X213946Y217175D01*
X215895Y215226D01*
X221742Y215226D01*
X217844Y215226D02*
X213946Y211328D01*
X210048Y213277D02*
X208099Y211328D01*
X204201Y211328D01*
X202252Y213277D01*
X202252Y221073D01*
X204201Y223022D01*
X208099Y223022D01*
X210048Y221073D01*
X210048Y219124D01*
X208099Y217175D01*
X202252Y217175D01*
D11*
X153670Y159004D02*
X151130Y159004D01*
X163830Y159004D02*
X166370Y159004D01*
X176530Y159004D02*
X179070Y159004D01*
X166370Y105156D02*
X163830Y105156D01*
X153670Y105156D02*
X151130Y105156D01*
X140970Y105156D02*
X138430Y105156D01*
X128270Y105156D02*
X125730Y105156D01*
X179070Y105156D02*
X179070Y159004D01*
X179070Y105156D02*
X176530Y105156D01*
X125730Y105156D02*
X125730Y129032D01*
X125730Y135128D01*
X125730Y159004D01*
X128270Y159004D01*
X138430Y159004D02*
X140970Y159004D01*
X125730Y135128D02*
X125839Y135126D01*
X125947Y135120D01*
X126056Y135111D01*
X126164Y135097D01*
X126271Y135080D01*
X126378Y135058D01*
X126484Y135033D01*
X126589Y135005D01*
X126693Y134972D01*
X126795Y134936D01*
X126896Y134896D01*
X126996Y134853D01*
X127094Y134806D01*
X127191Y134755D01*
X127285Y134701D01*
X127378Y134644D01*
X127468Y134584D01*
X127557Y134520D01*
X127643Y134453D01*
X127726Y134384D01*
X127807Y134311D01*
X127885Y134235D01*
X127961Y134157D01*
X128034Y134076D01*
X128103Y133993D01*
X128170Y133907D01*
X128234Y133818D01*
X128294Y133728D01*
X128351Y133635D01*
X128405Y133541D01*
X128456Y133444D01*
X128503Y133346D01*
X128546Y133246D01*
X128586Y133145D01*
X128622Y133043D01*
X128655Y132939D01*
X128683Y132834D01*
X128708Y132728D01*
X128730Y132621D01*
X128747Y132514D01*
X128761Y132406D01*
X128770Y132297D01*
X128776Y132189D01*
X128778Y132080D01*
X128776Y131971D01*
X128770Y131863D01*
X128761Y131754D01*
X128747Y131646D01*
X128730Y131539D01*
X128708Y131432D01*
X128683Y131326D01*
X128655Y131221D01*
X128622Y131117D01*
X128586Y131015D01*
X128546Y130914D01*
X128503Y130814D01*
X128456Y130716D01*
X128405Y130619D01*
X128351Y130525D01*
X128294Y130432D01*
X128234Y130342D01*
X128170Y130253D01*
X128103Y130167D01*
X128034Y130084D01*
X127961Y130003D01*
X127885Y129925D01*
X127807Y129849D01*
X127726Y129776D01*
X127643Y129707D01*
X127557Y129640D01*
X127468Y129576D01*
X127378Y129516D01*
X127285Y129459D01*
X127191Y129405D01*
X127094Y129354D01*
X126996Y129307D01*
X126896Y129264D01*
X126795Y129224D01*
X126693Y129188D01*
X126589Y129155D01*
X126484Y129127D01*
X126378Y129102D01*
X126271Y129080D01*
X126164Y129063D01*
X126056Y129049D01*
X125947Y129040D01*
X125839Y129034D01*
X125730Y129032D01*
X125839Y129034D01*
X125947Y129040D01*
X126056Y129049D01*
X126164Y129063D01*
X126271Y129080D01*
X126378Y129102D01*
X126484Y129127D01*
X126589Y129155D01*
X126693Y129188D01*
X126795Y129224D01*
X126896Y129264D01*
X126996Y129307D01*
X127094Y129354D01*
X127191Y129405D01*
X127285Y129459D01*
X127378Y129516D01*
X127468Y129576D01*
X127557Y129640D01*
X127643Y129707D01*
X127726Y129776D01*
X127807Y129849D01*
X127885Y129925D01*
X127961Y130003D01*
X128034Y130084D01*
X128103Y130167D01*
X128170Y130253D01*
X128234Y130342D01*
X128294Y130432D01*
X128351Y130525D01*
X128405Y130619D01*
X128456Y130716D01*
X128503Y130814D01*
X128546Y130914D01*
X128586Y131015D01*
X128622Y131117D01*
X128655Y131221D01*
X128683Y131326D01*
X128708Y131432D01*
X128730Y131539D01*
X128747Y131646D01*
X128761Y131754D01*
X128770Y131863D01*
X128776Y131971D01*
X128778Y132080D01*
X128776Y132189D01*
X128770Y132297D01*
X128761Y132406D01*
X128747Y132514D01*
X128730Y132621D01*
X128708Y132728D01*
X128683Y132834D01*
X128655Y132939D01*
X128622Y133043D01*
X128586Y133145D01*
X128546Y133246D01*
X128503Y133346D01*
X128456Y133444D01*
X128405Y133541D01*
X128351Y133635D01*
X128294Y133728D01*
X128234Y133818D01*
X128170Y133907D01*
X128103Y133993D01*
X128034Y134076D01*
X127961Y134157D01*
X127885Y134235D01*
X127807Y134311D01*
X127726Y134384D01*
X127643Y134453D01*
X127557Y134520D01*
X127468Y134584D01*
X127378Y134644D01*
X127285Y134701D01*
X127191Y134755D01*
X127094Y134806D01*
X126996Y134853D01*
X126896Y134896D01*
X126795Y134936D01*
X126693Y134972D01*
X126589Y135005D01*
X126484Y135033D01*
X126378Y135058D01*
X126271Y135080D01*
X126164Y135097D01*
X126056Y135111D01*
X125947Y135120D01*
X125839Y135126D01*
X125730Y135128D01*
D12*
X126914Y169200D02*
X118948Y177165D01*
X118948Y169200D02*
X126914Y177165D01*
X122931Y177165D02*
X122931Y169200D01*
X126914Y173182D02*
X118948Y173182D01*
X118948Y177165D02*
X126914Y169200D01*
X126914Y177165D02*
X118948Y169200D01*
X122931Y169200D02*
X122931Y177165D01*
X126914Y173182D02*
X118948Y173182D01*
M02*
