G04 EAGLE Gerber RS-274X export*
G75*
%MOMM*%
%FSLAX34Y34*%
%LPD*%
%INSilkscreen Top*%
%IPPOS*%
%AMOC8*
5,1,8,0,0,1.08239X$1,22.5*%
G01*
%ADD10C,0.127000*%
%ADD11C,0.152400*%
%ADD12C,0.101600*%
%ADD13C,0.050800*%
%ADD14C,0.203200*%


D10*
X241300Y12700D02*
X266700Y12700D01*
X266700Y165100D01*
X241300Y165100D01*
X241300Y12700D01*
X263525Y12700D02*
X263527Y12812D01*
X263533Y12924D01*
X263543Y13036D01*
X263557Y13147D01*
X263574Y13257D01*
X263596Y13367D01*
X263621Y13477D01*
X263651Y13585D01*
X263684Y13692D01*
X263721Y13798D01*
X263761Y13902D01*
X263806Y14005D01*
X263853Y14106D01*
X263905Y14206D01*
X263960Y14304D01*
X264018Y14399D01*
X264080Y14493D01*
X264145Y14584D01*
X264213Y14673D01*
X264284Y14760D01*
X264358Y14844D01*
X264435Y14925D01*
X264515Y15004D01*
X264598Y15079D01*
X264683Y15152D01*
X264771Y15222D01*
X264861Y15288D01*
X264954Y15352D01*
X265048Y15412D01*
X265145Y15468D01*
X265244Y15521D01*
X265344Y15571D01*
X265446Y15617D01*
X265550Y15659D01*
X265655Y15698D01*
X265762Y15733D01*
X265869Y15764D01*
X265978Y15792D01*
X266087Y15815D01*
X266198Y15835D01*
X266309Y15851D01*
X266420Y15863D01*
X266532Y15871D01*
X266644Y15875D01*
X266756Y15875D01*
X266868Y15871D01*
X266980Y15863D01*
X267091Y15851D01*
X267202Y15835D01*
X267313Y15815D01*
X267422Y15792D01*
X267531Y15764D01*
X267638Y15733D01*
X267745Y15698D01*
X267850Y15659D01*
X267954Y15617D01*
X268056Y15571D01*
X268156Y15521D01*
X268255Y15468D01*
X268352Y15412D01*
X268446Y15352D01*
X268539Y15288D01*
X268629Y15222D01*
X268717Y15152D01*
X268802Y15079D01*
X268885Y15004D01*
X268965Y14925D01*
X269042Y14844D01*
X269116Y14760D01*
X269187Y14673D01*
X269255Y14584D01*
X269320Y14493D01*
X269382Y14399D01*
X269440Y14304D01*
X269495Y14206D01*
X269547Y14106D01*
X269594Y14005D01*
X269639Y13902D01*
X269679Y13798D01*
X269716Y13692D01*
X269749Y13585D01*
X269779Y13477D01*
X269804Y13367D01*
X269826Y13257D01*
X269843Y13147D01*
X269857Y13036D01*
X269867Y12924D01*
X269873Y12812D01*
X269875Y12700D01*
X269873Y12588D01*
X269867Y12476D01*
X269857Y12364D01*
X269843Y12253D01*
X269826Y12143D01*
X269804Y12033D01*
X269779Y11923D01*
X269749Y11815D01*
X269716Y11708D01*
X269679Y11602D01*
X269639Y11498D01*
X269594Y11395D01*
X269547Y11294D01*
X269495Y11194D01*
X269440Y11096D01*
X269382Y11001D01*
X269320Y10907D01*
X269255Y10816D01*
X269187Y10727D01*
X269116Y10640D01*
X269042Y10556D01*
X268965Y10475D01*
X268885Y10396D01*
X268802Y10321D01*
X268717Y10248D01*
X268629Y10178D01*
X268539Y10112D01*
X268446Y10048D01*
X268352Y9988D01*
X268255Y9932D01*
X268156Y9879D01*
X268056Y9829D01*
X267954Y9783D01*
X267850Y9741D01*
X267745Y9702D01*
X267638Y9667D01*
X267531Y9636D01*
X267422Y9608D01*
X267313Y9585D01*
X267202Y9565D01*
X267091Y9549D01*
X266980Y9537D01*
X266868Y9529D01*
X266756Y9525D01*
X266644Y9525D01*
X266532Y9529D01*
X266420Y9537D01*
X266309Y9549D01*
X266198Y9565D01*
X266087Y9585D01*
X265978Y9608D01*
X265869Y9636D01*
X265762Y9667D01*
X265655Y9702D01*
X265550Y9741D01*
X265446Y9783D01*
X265344Y9829D01*
X265244Y9879D01*
X265145Y9932D01*
X265048Y9988D01*
X264954Y10048D01*
X264861Y10112D01*
X264771Y10178D01*
X264683Y10248D01*
X264598Y10321D01*
X264515Y10396D01*
X264435Y10475D01*
X264358Y10556D01*
X264284Y10640D01*
X264213Y10727D01*
X264145Y10816D01*
X264080Y10907D01*
X264018Y11001D01*
X263960Y11096D01*
X263905Y11194D01*
X263853Y11294D01*
X263806Y11395D01*
X263761Y11498D01*
X263721Y11602D01*
X263684Y11708D01*
X263651Y11815D01*
X263621Y11923D01*
X263596Y12033D01*
X263574Y12143D01*
X263557Y12253D01*
X263543Y12364D01*
X263533Y12476D01*
X263527Y12588D01*
X263525Y12700D01*
D11*
X29210Y177800D02*
X22860Y171450D01*
X22860Y158750D02*
X29210Y152400D01*
X22860Y146050D01*
X22860Y133350D02*
X29210Y127000D01*
X29210Y177800D02*
X67310Y177800D01*
X73660Y171450D01*
X73660Y158750D01*
X67310Y152400D01*
X73660Y146050D01*
X73660Y133350D01*
X67310Y127000D01*
X67310Y152400D02*
X29210Y152400D01*
X29210Y127000D02*
X67310Y127000D01*
X22860Y133350D02*
X22860Y146050D01*
X22860Y158750D02*
X22860Y171450D01*
X29210Y127000D02*
X22860Y120650D01*
X22860Y107950D02*
X29210Y101600D01*
X67310Y127000D02*
X73660Y120650D01*
X73660Y107950D01*
X67310Y101600D01*
X29210Y101600D01*
X22860Y107950D02*
X22860Y120650D01*
D12*
X201910Y185928D02*
X201910Y197622D01*
X207757Y197622D01*
X209706Y195673D01*
X209706Y191775D01*
X207757Y189826D01*
X201910Y189826D01*
X205808Y189826D02*
X209706Y185928D01*
X213604Y193724D02*
X217502Y197622D01*
X217502Y185928D01*
X213604Y185928D02*
X221400Y185928D01*
X199898Y211328D02*
X199898Y223022D01*
X205745Y223022D01*
X207694Y221073D01*
X207694Y217175D01*
X205745Y215226D01*
X199898Y215226D01*
X203796Y215226D02*
X207694Y211328D01*
X217439Y211328D02*
X217439Y223022D01*
X211592Y217175D01*
X219388Y217175D01*
D10*
X150300Y42900D02*
X150202Y42898D01*
X150104Y42892D01*
X150006Y42883D01*
X149909Y42869D01*
X149812Y42852D01*
X149716Y42831D01*
X149621Y42806D01*
X149527Y42778D01*
X149435Y42745D01*
X149343Y42710D01*
X149253Y42670D01*
X149165Y42628D01*
X149078Y42581D01*
X148994Y42532D01*
X148911Y42479D01*
X148831Y42423D01*
X148752Y42363D01*
X148676Y42301D01*
X148603Y42236D01*
X148532Y42168D01*
X148464Y42097D01*
X148399Y42024D01*
X148337Y41948D01*
X148277Y41869D01*
X148221Y41789D01*
X148168Y41706D01*
X148119Y41622D01*
X148072Y41535D01*
X148030Y41447D01*
X147990Y41357D01*
X147955Y41265D01*
X147922Y41173D01*
X147894Y41079D01*
X147869Y40984D01*
X147848Y40888D01*
X147831Y40791D01*
X147817Y40694D01*
X147808Y40596D01*
X147802Y40498D01*
X147800Y40400D01*
X150300Y42900D02*
X205300Y42900D01*
X205398Y42898D01*
X205496Y42892D01*
X205594Y42883D01*
X205691Y42869D01*
X205788Y42852D01*
X205884Y42831D01*
X205979Y42806D01*
X206073Y42778D01*
X206165Y42745D01*
X206257Y42710D01*
X206347Y42670D01*
X206435Y42628D01*
X206522Y42581D01*
X206606Y42532D01*
X206689Y42479D01*
X206769Y42423D01*
X206848Y42363D01*
X206924Y42301D01*
X206997Y42236D01*
X207068Y42168D01*
X207136Y42097D01*
X207201Y42024D01*
X207263Y41948D01*
X207323Y41869D01*
X207379Y41789D01*
X207432Y41706D01*
X207481Y41622D01*
X207528Y41535D01*
X207570Y41447D01*
X207610Y41357D01*
X207645Y41265D01*
X207678Y41173D01*
X207706Y41079D01*
X207731Y40984D01*
X207752Y40888D01*
X207769Y40791D01*
X207783Y40694D01*
X207792Y40596D01*
X207798Y40498D01*
X207800Y40400D01*
X207800Y10400D02*
X207780Y10293D01*
X207756Y10187D01*
X207729Y10082D01*
X207698Y9978D01*
X207663Y9875D01*
X207625Y9774D01*
X207583Y9674D01*
X207537Y9575D01*
X207488Y9478D01*
X207436Y9383D01*
X207380Y9290D01*
X207321Y9199D01*
X207259Y9110D01*
X207193Y9024D01*
X207125Y8939D01*
X207053Y8858D01*
X206979Y8779D01*
X206902Y8702D01*
X206822Y8629D01*
X206740Y8558D01*
X206655Y8490D01*
X206568Y8425D01*
X206478Y8364D01*
X206387Y8306D01*
X206293Y8251D01*
X206197Y8199D01*
X206100Y8151D01*
X206001Y8106D01*
X205901Y8065D01*
X205799Y8028D01*
X205696Y7994D01*
X205591Y7964D01*
X205486Y7937D01*
X205380Y7915D01*
X205273Y7896D01*
X205165Y7881D01*
X205057Y7870D01*
X204949Y7863D01*
X204841Y7859D01*
X204732Y7860D01*
X204624Y7864D01*
X204515Y7872D01*
X204407Y7884D01*
X204300Y7900D01*
X150300Y7900D01*
X150202Y7902D01*
X150104Y7908D01*
X150006Y7917D01*
X149909Y7931D01*
X149812Y7948D01*
X149716Y7969D01*
X149621Y7994D01*
X149527Y8022D01*
X149435Y8055D01*
X149343Y8090D01*
X149253Y8130D01*
X149165Y8172D01*
X149078Y8219D01*
X148994Y8268D01*
X148911Y8321D01*
X148831Y8377D01*
X148752Y8437D01*
X148676Y8499D01*
X148603Y8564D01*
X148532Y8632D01*
X148464Y8703D01*
X148399Y8776D01*
X148337Y8852D01*
X148277Y8931D01*
X148221Y9011D01*
X148168Y9094D01*
X148119Y9178D01*
X148072Y9265D01*
X148030Y9353D01*
X147990Y9443D01*
X147955Y9535D01*
X147922Y9627D01*
X147894Y9721D01*
X147869Y9816D01*
X147848Y9912D01*
X147831Y10009D01*
X147817Y10106D01*
X147808Y10204D01*
X147802Y10302D01*
X147800Y10400D01*
X147800Y14400D01*
X147800Y36400D02*
X147800Y40400D01*
X207800Y40400D02*
X207800Y36400D01*
X207800Y14400D02*
X207800Y10400D01*
X192800Y32900D02*
X162800Y32900D01*
X162800Y17900D02*
X192800Y17900D01*
X162800Y17900D02*
X162800Y32900D01*
X192800Y32900D02*
X192800Y17900D01*
D13*
X160754Y45654D02*
X160754Y52772D01*
X164313Y52772D01*
X165499Y51586D01*
X165499Y49213D01*
X164313Y48027D01*
X160754Y48027D01*
X163127Y48027D02*
X165499Y45654D01*
X167770Y52772D02*
X172516Y52772D01*
X167770Y52772D02*
X167770Y45654D01*
X172516Y45654D01*
X170143Y49213D02*
X167770Y49213D01*
X178346Y52772D02*
X179532Y51586D01*
X178346Y52772D02*
X175973Y52772D01*
X174787Y51586D01*
X174787Y50399D01*
X175973Y49213D01*
X178346Y49213D01*
X179532Y48027D01*
X179532Y46840D01*
X178346Y45654D01*
X175973Y45654D01*
X174787Y46840D01*
X181803Y52772D02*
X186549Y52772D01*
X181803Y52772D02*
X181803Y45654D01*
X186549Y45654D01*
X184176Y49213D02*
X181803Y49213D01*
X191192Y45654D02*
X191192Y52772D01*
X188820Y52772D02*
X193565Y52772D01*
D14*
X90400Y156700D02*
X90400Y198638D01*
X90402Y198833D01*
X90409Y199028D01*
X90421Y199222D01*
X90438Y199416D01*
X90459Y199610D01*
X90485Y199803D01*
X90515Y199995D01*
X90550Y200187D01*
X90590Y200378D01*
X90634Y200567D01*
X90683Y200756D01*
X90737Y200943D01*
X90795Y201129D01*
X90857Y201314D01*
X90924Y201497D01*
X90995Y201678D01*
X91071Y201858D01*
X91151Y202035D01*
X91235Y202211D01*
X91323Y202385D01*
X91416Y202556D01*
X91513Y202725D01*
X91614Y202892D01*
X91718Y203056D01*
X91827Y203218D01*
X91940Y203377D01*
X92056Y203533D01*
X92176Y203686D01*
X92300Y203837D01*
X92428Y203984D01*
X92558Y204128D01*
X92693Y204269D01*
X92831Y204407D01*
X92972Y204542D01*
X93116Y204672D01*
X93263Y204800D01*
X93414Y204924D01*
X93567Y205044D01*
X93723Y205160D01*
X93882Y205273D01*
X94044Y205382D01*
X94208Y205486D01*
X94375Y205587D01*
X94544Y205684D01*
X94715Y205777D01*
X94889Y205865D01*
X95065Y205949D01*
X95242Y206029D01*
X95422Y206105D01*
X95603Y206176D01*
X95786Y206243D01*
X95971Y206305D01*
X96157Y206363D01*
X96344Y206417D01*
X96533Y206466D01*
X96722Y206510D01*
X96913Y206550D01*
X97105Y206585D01*
X97297Y206615D01*
X97490Y206641D01*
X97684Y206662D01*
X97878Y206679D01*
X98072Y206691D01*
X98267Y206698D01*
X98462Y206700D01*
X113400Y206700D01*
X206338Y206700D02*
X206533Y206698D01*
X206728Y206691D01*
X206922Y206679D01*
X207116Y206662D01*
X207310Y206641D01*
X207503Y206615D01*
X207695Y206585D01*
X207887Y206550D01*
X208078Y206510D01*
X208267Y206466D01*
X208456Y206417D01*
X208643Y206363D01*
X208829Y206305D01*
X209014Y206243D01*
X209197Y206176D01*
X209378Y206105D01*
X209558Y206029D01*
X209735Y205949D01*
X209911Y205865D01*
X210085Y205777D01*
X210256Y205684D01*
X210425Y205587D01*
X210592Y205486D01*
X210756Y205382D01*
X210918Y205273D01*
X211077Y205160D01*
X211233Y205044D01*
X211386Y204924D01*
X211537Y204800D01*
X211684Y204672D01*
X211828Y204542D01*
X211969Y204407D01*
X212107Y204269D01*
X212242Y204128D01*
X212372Y203984D01*
X212500Y203837D01*
X212624Y203686D01*
X212744Y203533D01*
X212860Y203377D01*
X212973Y203218D01*
X213082Y203056D01*
X213186Y202892D01*
X213287Y202725D01*
X213384Y202556D01*
X213477Y202385D01*
X213565Y202211D01*
X213649Y202035D01*
X213729Y201858D01*
X213805Y201678D01*
X213876Y201497D01*
X213943Y201314D01*
X214005Y201129D01*
X214063Y200943D01*
X214117Y200756D01*
X214166Y200567D01*
X214210Y200378D01*
X214250Y200187D01*
X214285Y199995D01*
X214315Y199803D01*
X214341Y199610D01*
X214362Y199416D01*
X214379Y199222D01*
X214391Y199028D01*
X214398Y198833D01*
X214400Y198638D01*
X206338Y206700D02*
X191400Y206700D01*
X214400Y198638D02*
X214400Y156700D01*
X214400Y122700D02*
X214400Y80762D01*
X214398Y80567D01*
X214391Y80372D01*
X214379Y80178D01*
X214362Y79984D01*
X214341Y79790D01*
X214315Y79597D01*
X214285Y79405D01*
X214250Y79213D01*
X214210Y79022D01*
X214166Y78833D01*
X214117Y78644D01*
X214063Y78457D01*
X214005Y78271D01*
X213943Y78086D01*
X213876Y77903D01*
X213805Y77722D01*
X213729Y77542D01*
X213649Y77365D01*
X213565Y77189D01*
X213477Y77015D01*
X213384Y76844D01*
X213287Y76675D01*
X213186Y76508D01*
X213082Y76344D01*
X212973Y76182D01*
X212860Y76023D01*
X212744Y75867D01*
X212624Y75714D01*
X212500Y75563D01*
X212372Y75416D01*
X212242Y75272D01*
X212107Y75131D01*
X211969Y74993D01*
X211828Y74858D01*
X211684Y74728D01*
X211537Y74600D01*
X211386Y74476D01*
X211233Y74356D01*
X211077Y74240D01*
X210918Y74127D01*
X210756Y74018D01*
X210592Y73914D01*
X210425Y73813D01*
X210256Y73716D01*
X210085Y73623D01*
X209911Y73535D01*
X209735Y73451D01*
X209558Y73371D01*
X209378Y73295D01*
X209197Y73224D01*
X209014Y73157D01*
X208829Y73095D01*
X208643Y73037D01*
X208456Y72983D01*
X208267Y72934D01*
X208078Y72890D01*
X207887Y72850D01*
X207695Y72815D01*
X207503Y72785D01*
X207310Y72759D01*
X207116Y72738D01*
X206922Y72721D01*
X206728Y72709D01*
X206533Y72702D01*
X206338Y72700D01*
X186400Y72700D01*
X98462Y72700D02*
X98267Y72702D01*
X98072Y72709D01*
X97878Y72721D01*
X97684Y72738D01*
X97490Y72759D01*
X97297Y72785D01*
X97105Y72815D01*
X96913Y72850D01*
X96722Y72890D01*
X96533Y72934D01*
X96344Y72983D01*
X96157Y73037D01*
X95971Y73095D01*
X95786Y73157D01*
X95603Y73224D01*
X95422Y73295D01*
X95242Y73371D01*
X95065Y73451D01*
X94889Y73535D01*
X94715Y73623D01*
X94544Y73716D01*
X94375Y73813D01*
X94208Y73914D01*
X94044Y74018D01*
X93882Y74127D01*
X93723Y74240D01*
X93567Y74356D01*
X93414Y74476D01*
X93263Y74600D01*
X93116Y74728D01*
X92972Y74858D01*
X92831Y74993D01*
X92693Y75131D01*
X92558Y75272D01*
X92428Y75416D01*
X92300Y75563D01*
X92176Y75714D01*
X92056Y75867D01*
X91940Y76023D01*
X91827Y76182D01*
X91718Y76344D01*
X91614Y76508D01*
X91513Y76675D01*
X91416Y76844D01*
X91323Y77015D01*
X91235Y77189D01*
X91151Y77365D01*
X91071Y77542D01*
X90995Y77722D01*
X90924Y77903D01*
X90857Y78086D01*
X90795Y78271D01*
X90737Y78457D01*
X90683Y78644D01*
X90634Y78833D01*
X90590Y79022D01*
X90550Y79213D01*
X90515Y79405D01*
X90485Y79597D01*
X90459Y79790D01*
X90438Y79984D01*
X90421Y80178D01*
X90409Y80372D01*
X90402Y80567D01*
X90400Y80762D01*
X98462Y72700D02*
X118400Y72700D01*
X90400Y80762D02*
X90400Y122700D01*
X122400Y139700D02*
X122409Y140436D01*
X122436Y141172D01*
X122481Y141907D01*
X122544Y142641D01*
X122626Y143372D01*
X122725Y144102D01*
X122842Y144829D01*
X122976Y145553D01*
X123129Y146273D01*
X123299Y146989D01*
X123487Y147701D01*
X123692Y148409D01*
X123914Y149110D01*
X124154Y149807D01*
X124410Y150497D01*
X124684Y151181D01*
X124974Y151857D01*
X125280Y152527D01*
X125603Y153188D01*
X125942Y153842D01*
X126297Y154487D01*
X126668Y155123D01*
X127054Y155750D01*
X127456Y156367D01*
X127872Y156974D01*
X128304Y157571D01*
X128750Y158157D01*
X129210Y158732D01*
X129684Y159295D01*
X130171Y159847D01*
X130673Y160386D01*
X131187Y160913D01*
X131714Y161427D01*
X132253Y161929D01*
X132805Y162416D01*
X133368Y162890D01*
X133943Y163350D01*
X134529Y163796D01*
X135126Y164228D01*
X135733Y164644D01*
X136350Y165046D01*
X136977Y165432D01*
X137613Y165803D01*
X138258Y166158D01*
X138912Y166497D01*
X139573Y166820D01*
X140243Y167126D01*
X140919Y167416D01*
X141603Y167690D01*
X142293Y167946D01*
X142990Y168186D01*
X143691Y168408D01*
X144399Y168613D01*
X145111Y168801D01*
X145827Y168971D01*
X146547Y169124D01*
X147271Y169258D01*
X147998Y169375D01*
X148728Y169474D01*
X149459Y169556D01*
X150193Y169619D01*
X150928Y169664D01*
X151664Y169691D01*
X152400Y169700D01*
X153136Y169691D01*
X153872Y169664D01*
X154607Y169619D01*
X155341Y169556D01*
X156072Y169474D01*
X156802Y169375D01*
X157529Y169258D01*
X158253Y169124D01*
X158973Y168971D01*
X159689Y168801D01*
X160401Y168613D01*
X161109Y168408D01*
X161810Y168186D01*
X162507Y167946D01*
X163197Y167690D01*
X163881Y167416D01*
X164557Y167126D01*
X165227Y166820D01*
X165888Y166497D01*
X166542Y166158D01*
X167187Y165803D01*
X167823Y165432D01*
X168450Y165046D01*
X169067Y164644D01*
X169674Y164228D01*
X170271Y163796D01*
X170857Y163350D01*
X171432Y162890D01*
X171995Y162416D01*
X172547Y161929D01*
X173086Y161427D01*
X173613Y160913D01*
X174127Y160386D01*
X174629Y159847D01*
X175116Y159295D01*
X175590Y158732D01*
X176050Y158157D01*
X176496Y157571D01*
X176928Y156974D01*
X177344Y156367D01*
X177746Y155750D01*
X178132Y155123D01*
X178503Y154487D01*
X178858Y153842D01*
X179197Y153188D01*
X179520Y152527D01*
X179826Y151857D01*
X180116Y151181D01*
X180390Y150497D01*
X180646Y149807D01*
X180886Y149110D01*
X181108Y148409D01*
X181313Y147701D01*
X181501Y146989D01*
X181671Y146273D01*
X181824Y145553D01*
X181958Y144829D01*
X182075Y144102D01*
X182174Y143372D01*
X182256Y142641D01*
X182319Y141907D01*
X182364Y141172D01*
X182391Y140436D01*
X182400Y139700D01*
X182391Y138964D01*
X182364Y138228D01*
X182319Y137493D01*
X182256Y136759D01*
X182174Y136028D01*
X182075Y135298D01*
X181958Y134571D01*
X181824Y133847D01*
X181671Y133127D01*
X181501Y132411D01*
X181313Y131699D01*
X181108Y130991D01*
X180886Y130290D01*
X180646Y129593D01*
X180390Y128903D01*
X180116Y128219D01*
X179826Y127543D01*
X179520Y126873D01*
X179197Y126212D01*
X178858Y125558D01*
X178503Y124913D01*
X178132Y124277D01*
X177746Y123650D01*
X177344Y123033D01*
X176928Y122426D01*
X176496Y121829D01*
X176050Y121243D01*
X175590Y120668D01*
X175116Y120105D01*
X174629Y119553D01*
X174127Y119014D01*
X173613Y118487D01*
X173086Y117973D01*
X172547Y117471D01*
X171995Y116984D01*
X171432Y116510D01*
X170857Y116050D01*
X170271Y115604D01*
X169674Y115172D01*
X169067Y114756D01*
X168450Y114354D01*
X167823Y113968D01*
X167187Y113597D01*
X166542Y113242D01*
X165888Y112903D01*
X165227Y112580D01*
X164557Y112274D01*
X163881Y111984D01*
X163197Y111710D01*
X162507Y111454D01*
X161810Y111214D01*
X161109Y110992D01*
X160401Y110787D01*
X159689Y110599D01*
X158973Y110429D01*
X158253Y110276D01*
X157529Y110142D01*
X156802Y110025D01*
X156072Y109926D01*
X155341Y109844D01*
X154607Y109781D01*
X153872Y109736D01*
X153136Y109709D01*
X152400Y109700D01*
X151664Y109709D01*
X150928Y109736D01*
X150193Y109781D01*
X149459Y109844D01*
X148728Y109926D01*
X147998Y110025D01*
X147271Y110142D01*
X146547Y110276D01*
X145827Y110429D01*
X145111Y110599D01*
X144399Y110787D01*
X143691Y110992D01*
X142990Y111214D01*
X142293Y111454D01*
X141603Y111710D01*
X140919Y111984D01*
X140243Y112274D01*
X139573Y112580D01*
X138912Y112903D01*
X138258Y113242D01*
X137613Y113597D01*
X136977Y113968D01*
X136350Y114354D01*
X135733Y114756D01*
X135126Y115172D01*
X134529Y115604D01*
X133943Y116050D01*
X133368Y116510D01*
X132805Y116984D01*
X132253Y117471D01*
X131714Y117973D01*
X131187Y118487D01*
X130673Y119014D01*
X130171Y119553D01*
X129684Y120105D01*
X129210Y120668D01*
X128750Y121243D01*
X128304Y121829D01*
X127872Y122426D01*
X127456Y123033D01*
X127054Y123650D01*
X126668Y124277D01*
X126297Y124913D01*
X125942Y125558D01*
X125603Y126212D01*
X125280Y126873D01*
X124974Y127543D01*
X124684Y128219D01*
X124410Y128903D01*
X124154Y129593D01*
X123914Y130290D01*
X123692Y130991D01*
X123487Y131699D01*
X123299Y132411D01*
X123129Y133127D01*
X122976Y133847D01*
X122842Y134571D01*
X122725Y135298D01*
X122626Y136028D01*
X122544Y136759D01*
X122481Y137493D01*
X122436Y138228D01*
X122409Y138964D01*
X122400Y139700D01*
M02*
