G04 EAGLE Gerber RS-274X export*
G75*
%MOMM*%
%FSLAX34Y34*%
%LPD*%
%INSoldermask Bottom*%
%IPPOS*%
%AMOC8*
5,1,8,0,0,1.08239X$1,22.5*%
G01*
%ADD10C,3.301600*%
%ADD11C,1.409600*%
%ADD12P,2.144431X8X292.500000*%
%ADD13R,1.601600X1.401600*%
%ADD14R,1.401600X1.601600*%
%ADD15C,1.901600*%
%ADD16C,1.879600*%
%ADD17C,3.217600*%
%ADD18R,0.635000X1.651000*%


D10*
X20320Y210820D03*
X17780Y20320D03*
D11*
X254000Y25400D03*
X254000Y50800D03*
X254000Y76200D03*
X254000Y101600D03*
X254000Y127000D03*
X254000Y152400D03*
D12*
X35560Y165100D03*
X60960Y165100D03*
X35560Y139700D03*
X60960Y139700D03*
X35560Y114300D03*
X60960Y114300D03*
D13*
X88900Y34900D03*
X88900Y15900D03*
D14*
X250800Y190500D03*
X231800Y190500D03*
D13*
X114300Y34900D03*
X114300Y15900D03*
X63500Y34900D03*
X63500Y15900D03*
D14*
X250800Y215900D03*
X231800Y215900D03*
D15*
X127400Y64700D03*
X152400Y64700D03*
X177400Y64700D03*
D16*
X162400Y209700D03*
X142400Y209700D03*
D17*
X96900Y139700D03*
X207900Y139700D03*
D16*
X182400Y209700D03*
X122400Y209700D03*
D18*
X133350Y169164D03*
X146050Y169164D03*
X158750Y169164D03*
X171450Y169164D03*
X171450Y94996D03*
X158750Y94996D03*
X146050Y94996D03*
X133350Y94996D03*
M02*
