M48
;GenerationSoftware,Autodesk,EAGLE,9.4.2*%
;CreationDate,2019-12-04T09:42:33Z*%
FMAT,2
ICI,OFF
METRIC,TZ,000.000
T6C0.700
T5C0.800
T4C1.016
T3C1.100
T2C2.100
T1C3.200
%
G90
M71
T1
X2032Y21082
X1778Y2032
T2
X20790Y13970
X9690Y13970
T3
X12240Y20970
X18240Y20970
X14240Y20970
X16240Y20970
X17740Y6470
X15240Y6470
X12740Y6470
T4
X6096Y11430
X3556Y11430
X6096Y13970
X3556Y13970
X6096Y16510
X3556Y16510
T5
X25400Y15240
X25400Y12700
X25400Y10160
X25400Y7620
X25400Y5080
X25400Y2540
T6
X13208Y18796
X19304Y16764
X16510Y14478
X4826Y3302
X14478Y14478
X2540Y5080
X5080Y7874
X6350Y7112
X9398Y8382
M30